<?xml version="1.0" encoding="UTF-8"?>
<svg id="_Слой_1" data-name="Слой_1" xmlns="http://www.w3.org/2000/svg" viewBox="0 0 441.71 273.92">
  <defs>
    <style>
      .cls-1 {
        fill: #1d1d1b;
      }

      .cls-2 {
        fill: #d61016;
      }

      .cls-3 {
        fill: #d61119;
        stroke: #d61016;
        stroke-miterlimit: 10;
      }
    </style>
  </defs>
  <g>
    <path class="cls-2" d="M169.25,270.35c16.04-32.29,31.48-64.85,46.64-97.55,3-6.55,5.69-13.25,8.43-19.92,4.8-11.54,12.32-27.98,17.53-39.54,9.04-19.64,17.95-39.35,27.59-58.71,7.37-14.99,15.78-33.79,22.9-48.97,0,0,1.14-2.45,1.14-2.45l.28-.62.14-.31c.06-.12.09-.2.1-.24.05-.11.05-.19.04-.17,0,0,.03.18.22.29.18.11.31.06.31.07,0,0-.06.02-.13.11-.04.02-.07.09-.11.13l-.19.26-.4.55-1.58,2.19c-40.32,56.39-87.88,123.73-129.44,179.9,0,0-.4.55-.4.55l-.2.27c-1.09,1.67-4.28,1.36-4.57-1.24.05-1.46.53-1.71.41-1.62l.34-.59c11.9-21.14,26.64-46.86,29.16-71.16.96-10.42-1.93-20.71-12.53-24.56-16.61-6.27-35.11-4.71-52.48-2.78-40.39,5.56-79.86,18.12-116.76,35.4-.99.44-2.22,1.18-2.76,1.85-.14.2-.09.2-.1.13,1.01,1.17,3.13,1.63,4.69,2.12,5.15,1.33,10.47,1.95,15.78,2.54,64.6,5.77,129.58,2.41,194.32,1.85,7.04-.15,25.58-.52,32.41-.71,1.51-.06,6.36-.1,7.91-.38,2.45-.2,4.6-2.64,3.9-5.07-1-3.95-3.32-7.42-6.61-9.87-2.61-1.98-5.75-3.34-9.03-4.28-11.93-3.2-25.78-2.05-37.35.43,0,0,.78-.52.5-1.78-.38-.88-.6-.77-.64-.86.48.19,1.59.37,2.27.47,32.16,2.83,64.69,2.21,96.98,3.01,41.81.4,88.13,1.64,129.72.05,0,0,.02,2.31.02,2.31-39.82-.93-89.67.41-129.75.48-32.52-.2-65.04.59-97.5-2.09-1.24-.21-2.4-.29-3.63-.91-.23-.2-.65-.23-1.11-1.32-.46-2.48,1.73-2.9,3.08-3.29,9.04-1.9,18.18-2.77,27.47-2.21,7.5.55,15.2,2.1,21.47,6.69,4.47,3.27,9.14,10.03,8.24,15.78-.74,3.33-3.47,5.81-6.7,6.47-2.19.42-6.8.47-9.12.53,0,0-10.81.26-10.81.26-50.37,1.46-101.07,1.09-151.41.13-25.25-.63-50.66-.67-75.71-4.35-3.74-.78-7.64-1.19-10.9-3.49-2.62-2.28-.87-4.93,1.87-6.35,4.85-2.49,9.88-4.69,14.86-6.89,33.25-14.19,68.08-25.11,103.96-30.17,17.99-2.13,37.05-3.79,54.43,2.7,20.81,7.74,16.08,33.55,10.44,50.08-6.08,18.13-15.2,34.96-24.63,51.5,0,0-.33.59-.33.59-.23.28.09.23.16-1-.21-2.01-2.67-2.31-3.56-1C199.97,125.45,249.81,58.99,291.9,1.96c0,0,.4-.55.4-.55l.21-.29c.11-.13.19-.25.33-.38.6-.6,1.64-1.07,2.59-.49,1.11.72.96,2.06.49,2.96-.24.51-1.29,2.79-1.55,3.38-10.33,22.4-21.13,46.53-30.82,69.12-11.78,25.79-23.93,52.97-36.54,78.4-3.27,6.43-6.61,12.83-9.62,19.38-14.93,32.81-29.57,65.73-43.61,98.94,0,0-4.54-2.09-4.54-2.09h0Z"/>
    <path class="cls-3" d="M438.27,110.29c0,.36-.29.66-.66.66-.3,0-.55-.21-.63-.48-.01-.06-.02-.12-.02-.18,0-.37.29-.66.65-.66s.66.29.66.66Z"/>
    <path class="cls-3" d="M173.36,272.21c-.45,1.01-1.63,1.49-2.67,1.04-.84-.37-1.28-1.27-1.17-2.13.05-.18.09-.36.17-.53.46-1.04,1.63-1.49,2.64-1.05s1.49,1.63,1.04,2.67Z"/>
  </g>
  <g>
    <path class="cls-1" d="M273.33,139.28v-.8c2.4,0,3.04-.42,3.04-2.11v-17.05c0-1.57-.64-2.24-3.04-2.24v-.8h11.04c4.86,0,7.62,2.27,7.62,5.34,0,2.24-1.22,4.16-4.99,5.18,4.38.83,6.02,3.14,6.02,6.14,0,3.3-2.69,6.34-8,6.34h-11.68ZM278.38,126.64h5.92c3.26,0,5.5-2.72,5.5-5.18,0-1.98-1.6-4.38-5.5-4.38h-3.23c-1.89,0-2.69.67-2.69,2.24v7.33ZM278.38,127.44v8.93c0,1.7.8,2.11,2.69,2.11h3.52c4.1,0,6.3-2.72,6.3-5.54s-2.5-5.5-6.05-5.5h-6.46Z"/>
    <path class="cls-1" d="M295.98,116.28h8.13v.8c-2.27,0-3.07.58-3.07,1.92v13.15c0,3.9,2.94,6.59,7.1,6.59,3.04,0,6.75-1.41,6.75-6.72v-13.02c0-1.34-.67-1.92-3.07-1.92v-.8h7.04v.8c-2.4,0-3.07.58-3.07,1.92v13.21c0,5.15-3.49,7.58-8.64,7.58-4.26,0-8.13-2.4-8.13-8v-12.8c0-1.34-.58-1.92-3.04-1.92v-.8Z"/>
    <path class="cls-1" d="M322.74,133.39c1.7,2.59,4.35,5.6,8.86,5.6,3.23,0,5.7-1.31,5.7-5.02,0-3.14-1.92-4.16-6.88-5.6-3.55-1.06-7.39-2.66-7.39-6.82,0-2.69,1.7-5.82,6.85-5.82,2.3,0,3.68.86,4.51.86.16,0,.29,0,.38-.06l1.57-.58,2.08,5.76-.48.32c-1.89-3.17-4.48-5.5-8.19-5.5-2.59,0-4.99,1.18-4.99,4.48s3.14,4.67,6.53,5.6c4.32,1.18,7.84,2.66,7.84,6.75,0,4.51-3.33,6.43-7.42,6.43-2.27,0-4.29-1.02-5.02-1.02s-1.63.45-2.34.96l-2.24-6.08.64-.26Z"/>
    <path class="cls-1" d="M343.09,116.28h8.64v.8c-2.5,0-3.33.48-3.33,2.08v17.44c0,1.28.83,1.89,3.33,1.89v.8h-8.64v-.8c2.5,0,3.33-.61,3.33-1.89v-17.44c0-1.6-.83-2.08-3.33-2.08v-.8Z"/>
    <path class="cls-1" d="M354.61,139.28v-.8c2.27,0,3.04-.61,3.04-2.21v-16.99c0-1.6-.77-2.21-3.04-2.21v-.8h4.32l14.59,19.26v-16.7c0-1.25-.83-1.76-3.33-1.76v-.8h7.33v.8c-2.11,0-3.07.54-3.07,1.76v20.61h-.51l-15.33-20.42v17.25c0,1.6.7,2.21,3.33,2.21v.8h-7.33Z"/>
    <path class="cls-1" d="M379.92,139.28v-.8c2.18,0,3.04-.67,3.04-2.21v-17.15c0-1.47-.86-2.05-3.04-2.05v-.8h16.8l2.24,5.44-.48.32c-1.6-1.95-2.88-4.96-7.84-4.96h-3.14c-1.66,0-2.53.58-2.53,2.05v7.71h4.86c2.24,0,3.46-.96,3.46-4h.77v8.96h-.77c0-2.85-1.22-4.1-3.46-4.1h-4.86v8.58c0,1.54.86,2.21,2.56,2.21h3.01c3.71,0,5.98-1.54,8.54-5.09l.58.26-2.18,5.63h-17.57Z"/>
    <path class="cls-1" d="M404.01,133.39c1.7,2.59,4.35,5.6,8.86,5.6,3.23,0,5.7-1.31,5.7-5.02,0-3.14-1.92-4.16-6.88-5.6-3.55-1.06-7.39-2.66-7.39-6.82,0-2.69,1.7-5.82,6.85-5.82,2.3,0,3.68.86,4.51.86.16,0,.29,0,.38-.06l1.57-.58,2.08,5.76-.48.32c-1.89-3.17-4.48-5.5-8.19-5.5-2.59,0-4.99,1.18-4.99,4.48s3.14,4.67,6.53,5.6c4.32,1.18,7.84,2.66,7.84,6.75,0,4.51-3.33,6.43-7.42,6.43-2.27,0-4.29-1.02-5.02-1.02s-1.63.45-2.34.96l-2.24-6.08.64-.26Z"/>
    <path class="cls-1" d="M425.33,133.39c1.7,2.59,4.35,5.6,8.86,5.6,3.23,0,5.7-1.31,5.7-5.02,0-3.14-1.92-4.16-6.88-5.6-3.55-1.06-7.39-2.66-7.39-6.82,0-2.69,1.7-5.82,6.85-5.82,2.3,0,3.68.86,4.51.86.16,0,.29,0,.38-.06l1.57-.58,2.08,5.76-.48.32c-1.89-3.17-4.48-5.5-8.19-5.5-2.59,0-4.99,1.18-4.99,4.48s3.14,4.67,6.53,5.6c4.32,1.18,7.84,2.66,7.84,6.75,0,4.51-3.33,6.43-7.42,6.43-2.27,0-4.29-1.02-5.02-1.02s-1.63.45-2.34.96l-2.24-6.08.64-.26Z"/>
  </g>
</svg>